OMWDRunes.sfdir
StartChar: A
Encoding: 65 65 0
Width: 518
VWidth: 0
Flags: W
HStem: -90 21G<291 297.5> -90 21G<291 297.5> 613 57<423.566 499.785> 620 40<30.1292 140.922 205.482 333.993>
VStem: 54 110<245.164 461.663> 285 72<422.361 543.319>
LayerCount: 2
Fore
SplineSet
310 620 m 2x1c
 239 620 l 2
 199 620 164 546 164 387 c 0
 164 279 182 181 229 69 c 0
 232 61 254 21 269 21 c 0
 277 21 300 66 326 103 c 0
 338 121 348 140 361 140 c 0
 368 140 378 124 375 118 c 0
 350 69 319 -22 312 -75 c 0
 311 -86 300 -90 295 -90 c 0
 287 -90 240 -33 225 -8 c 0
 169 83 54 217 54 354 c 0
 54 445 92 501 139 583 c 0
 156 612 110 616 64 620 c 0
 41 622 30 628 30 642 c 0
 30 655 46 660 78 660 c 2
 302 660 l 2x9c
 316 660 373 655 390 655 c 0
 397 655 475 670 482 670 c 0
 499 670 506 665 506 650 c 0
 506 634 489 623 463 613 c 0x2c
 397 588 357 533 357 458 c 0
 357 433 365 379 357 379 c 0
 327 379 285 441 285 490 c 0
 285 549 334 596 334 606 c 0
 334 614 325 620 310 620 c 2x1c
EndSplineSet
Validated: 33
EndChar
StartChar: C
Encoding: 67 67 2
Width: 594
Flags: W
HStem: -90 21G<71 86.5 505 523.5> -90 21G<71 86.5 505 523.5> 620 40<117.999 475.997>
VStem: 60 58<576.791 619.973> 60 35<-89.9074 294.638> 476 58<571.328 620> 499 35<-89.7148 282.145>
LayerCount: 2
Fore
SplineSet
60 -45 m 10xa8
 60 642 l 2
 60 655 76 660 108 660 c 2
 495 660 l 2
 521 660 534 655 534 642 c 10
 534 -45 l 18
 534 -53 533 -90 514 -90 c 8
 496 -90 499 -65 499 -47 c 18
 499 84 l 10xaa
 499 253 466 415 392 505 c 0
 386 512 376 518 376 529 c 16
 376 536 385 542 394 544 c 16
 429 553 476 576 476 601 c 0
 476 616 472 620 457 620 c 2
 143 620 l 2
 117 620 118 616 118 604 c 0xb4
 118 586 176 548 202 541 c 0
 208 539 216 536 216 529 c 16
 216 517 202 508 196 501 c 0
 124 415 95 260 95 98 c 18
 95 -46 l 10
 95 -64 94 -90 79 -90 c 0
 63 -90 60 -76 60 -45 c 10xa8
EndSplineSet
Validated: 33
EndChar
StartChar: E
Encoding: 69 69 4
Width: 572
VWidth: 0
Flags: W
HStem: -80 40<205.037 489.916> 264 79<122.865 445.619> 468 20G<68.5 81> 620 40<58.1182 380.838>
VStem: 58 61<50.7135 260.6> 58 38<378.199 487.813> 452 62<351.813 560.509> 486 28<116.017 196.706>
LayerCount: 2
Fore
SplineSet
488 660 m 2xf6
 505 660 514 653 514 642 c 10
 514 162 l 18
 514 139 513 116 500 116 c 8
 490 116 488 127 486 136 c 0
 474 206 458 264 397 264 c 18
 178 264 l 2
 138 264 119 261 119 221 c 0xf9
 119 -14 175 -40 352 -40 c 10
 463 -40 l 26
 476 -40 490 -50 490 -61 c 8
 490 -74 477 -80 464 -80 c 26
 83 -80 l 18
 65 -80 58 -70 58 -51 c 10
 58 443 l 18
 58 472 62 488 75 488 c 0
 87 488 93 473 96 456 c 0
 107 389 113 343 174 343 c 10
 354 343 l 18
 432 343 452 351 452 395 c 10
 452 461 l 2
 452 559 427 620 254 620 c 2
 92 620 l 2
 68 620 58 628 58 642 c 0
 58 655 74 660 106 660 c 2
 488 660 l 2xf6
EndSplineSet
Validated: 1
EndChar
StartChar: H
Encoding: 72 72 7
Width: 540
Flags: W
HStem: -80 33<6.64787 81.2754> 335 55<345.678 426.049> 495 21G<385 393.5> 497 20G<465 474> 620 40<16.2061 111.532 220.06 392.566>
VStem: 16 204<569.5 648.5> 394 87<585.123 709.5> 438 76<216.14 417.341>
LayerCount: 2
Fore
SplineSet
345 312 m 0xdd
 329 152 206 23 139 -66 c 0
 130 -77 120 -80 107 -80 c 2
 37 -80 l 2
 25 -80 6 -77 6 -66 c 0
 6 -58 24 -52 53 -47 c 0
 122 -35 250 190 250 335 c 0
 250 461 166 614 50 620 c 0
 34 621 16 628 16 642 c 0
 16 655 32 660 64 660 c 10
 319 660 l 18
 418 660 432 735 462 735 c 0
 479 735 481 717 481 702 c 0
 481 622 466 587 426 528 c 0
 415 512 397 495 390 495 c 0
 380 495 379 509 379 520 c 16
 379 530 394 559 394 586 c 0xee
 394 611 393 620 354 620 c 10
 239 620 l 18
 223 620 220 612 220 597 c 0
 220 542 290 474 323 419 c 0
 337 395 354 390 364 390 c 10
 398 390 l 18
 417 390 429 403 426 419 c 0
 423 435 420 449 420 453 c 0
 420 466 430 472 438 480 c 0
 458 499 460 517 470 517 c 0
 478 517 514 425 514 363 c 16
 514 258 477 160 450 102 c 0
 444 89 437 75 425 75 c 0
 416 75 414 84 414 93 c 0
 414 109 438 189 438 308 c 0
 438 328 423 335 398 335 c 10
 373 335 l 18
 355 335 346 325 345 312 c 0xdd
EndSplineSet
Validated: 33
EndChar
StartChar: J
Encoding: 74 74 9
Width: 575
VWidth: 0
Flags: W
HStem: -80 30<225.949 315.987> 586 74<236.546 387.99> 620 40<58.1292 145.656>
VStem: 76 48<64.0137 432.804> 486 36<299.136 445.173>
LayerCount: 2
Fore
SplineSet
76 309 m 2xd8
 76 400 97 504 143 584 c 0
 156 607 132 617 92 620 c 0
 69 622 58 628 58 642 c 0
 58 655 74 660 106 660 c 2xb8
 333 660 l 2
 441 660 455 615 472 615 c 0
 483 615 491 680 508 680 c 0
 522 680 522 658 522 643 c 2
 522 402 l 2
 522 355 511 292 496 292 c 8
 487 292 486 303 486 314 c 0
 486 442 440 586 312 586 c 8
 169 586 124 414 124 271 c 2
 124 201 l 2
 124 70 173 -50 288 -50 c 0
 298 -50 316 -53 316 -65 c 0
 316 -76 306 -80 292 -80 c 10
 94 -80 l 18
 83 -80 76 -71 76 -47 c 2
 76 309 l 2xd8
EndSplineSet
Validated: 33
EndChar
StartChar: K
Encoding: 75 75 10
Width: 514
Flags: W
HStem: -90 21G<252 264> -90 21G<252 264> 620 40<151.098 314.999 405.948 483.749> 655 20G<135 151.5>
VStem: 25 74<211.241 475.258> 245 36<68.5203 208.238> 428 59<211.564 422.914>
LayerCount: 2
Fore
SplineSet
99 399 m 0x2e
 99 271 106 176 165 69 c 0
 179 44 197 21 205 21 c 0
 213 21 236 84 245 141 c 0
 248 162 254 210 267 210 c 0
 279 210 281 188 281 181 c 0
 281 113 281 4 281 -63 c 0
 281 -78 272 -90 256 -90 c 0
 248 -90 203 -47 182 -27 c 0
 88 63 25 223 25 349 c 0
 25 440 55 573 111 652 c 0
 113 654 129 675 141 675 c 0x9e
 162 675 186 660 222 660 c 10
 445 660 l 2
 462 660 484 658 484 642 c 0
 484 626 455 623 445 622 c 0
 416 618 393 616 409 594 c 0
 438 553 487 453 487 355 c 0
 487 239 457 162 385 75 c 0
 376 64 367 57 353 57 c 8
 346 57 340 64 340 71 c 16
 340 79 346 85 353 94 c 0
 396 149 428 209 428 292 c 0
 428 419 373 513 315 601 c 0
 311 607 295 620 280 620 c 2
 176 620 l 2
 150 620 151 616 151 604 c 0
 151 586 184 574 210 567 c 0
 216 565 224 560 224 552 c 16
 224 540 214 535 205 533 c 0
 139 516 99 467 99 399 c 0x2e
EndSplineSet
Validated: 33
EndChar
StartChar: L
Encoding: 76 76 11
Width: 503
VWidth: 0
Flags: W
HStem: -80 30<381.828 475.987> 620 40<8.10596 63.6245 165.904 385.429> 655 20G<451.5 470.5>
VStem: 236 48<47.6074 372.555> 404 79<493.053 658.359>
LayerCount: 2
Fore
SplineSet
284 295 m 2xd8
 284 177 l 2
 284 46 333 -50 448 -50 c 0
 458 -50 476 -53 476 -65 c 0
 476 -76 466 -80 452 -80 c 10
 254 -80 l 18
 243 -80 236 -71 236 -47 c 2
 236 201 l 2
 236 366 185 540 37 616 c 0
 17 627 8 628 8 642 c 0
 8 655 24 660 56 660 c 10
 366 660 l 26xd8
 404 660 441 675 462 675 c 0xb8
 479 675 483 665 483 648 c 0
 483 543 471 469 405 422 c 0
 389 411 373 405 366 405 c 0
 356 405 350 412 350 421 c 16
 350 431 404 477 404 523 c 0
 404 588 393 620 326 620 c 2
 182 620 l 18
 157 620 151 612 162 603 c 0
 246 535 284 443 284 295 c 2xd8
EndSplineSet
Validated: 1
EndChar
StartChar: M
Encoding: 77 77 12
Width: 556
Flags: W
HStem: -90 21G<307.5 318> -90 21G<307.5 318> 621 39<25.0289 58.9935 162.555 245.342 298.41 350.124>
VStem: 33 35<283.462 464.699> 59 102<507.569 619.118> 352 139<534.255 622.74> 441 69<231.34 525.463>
LayerCount: 2
Fore
SplineSet
33 375 m 0xb2
 33 533 59 585 59 602 c 0
 59 615 50 620 43 621 c 0
 35 622 25 630 25 640 c 0
 25 653 41 660 55 660 c 10
 202 660 l 18
 221 660 246 655 246 644 c 0
 246 631 227 626 207 624 c 0
 179 621 161 613 161 592 c 0
 161 513 203 448 246 409 c 0
 258 398 261 401 272 410 c 0
 333 462 352 505 352 585 c 0
 352 607 344 621 329 623 c 0
 314 625 297 634 297 646 c 0
 297 658 315 660 345 660 c 10
 490 660 l 18
 507 660 529 656 529 644 c 0
 529 632 517 623 508 622 c 0
 490 620 491 613 491 594 c 0xac
 491 581 510 466 510 390 c 0
 510 198 415 23 343 -72 c 0
 334 -83 325 -90 311 -90 c 8
 304 -90 298 -83 298 -76 c 16
 298 -68 302 -62 309 -53 c 0
 378 43 441 154 441 292 c 0
 441 387 440 470 419 527 c 0
 417 534 408 534 405 524 c 0
 379 438 307 379 275 357 c 0
 263 349 252 344 242 353 c 0
 213 379 146 430 121 499 c 0
 118 507 108 507 104 502 c 0
 84 476 68 418 68 361 c 0
 68 316 86 267 86 259 c 0
 86 252 84 244 75 244 c 0
 64 244 33 307 33 375 c 0xb2
EndSplineSet
Validated: 33
EndChar
StartChar: N
Encoding: 78 78 13
Width: 416
Flags: W
HStem: -90 21G<35 45.5> -90 21G<35 45.5>
VStem: 12 166<559.5 648.5> 124 95<196.327 398.182> 338 59<415.03 574.901>
LayerCount: 2
Fore
SplineSet
124 272 m 0x98
 124 398 100 531 46 602 c 0
 36 615 12 628 12 642 c 0
 12 655 28 660 60 660 c 10
 223 660 l 26
 241 660 265 658 265 644 c 0
 265 633 236 625 214 620 c 0
 195 616 178 602 178 583 c 0xa8
 178 536 223 456 275 394 c 0
 289 377 297 379 305 394 c 0
 307 398 338 445 338 497 c 0
 338 574 328 606 328 617 c 0
 328 628 328 638 339 638 c 0
 351 638 397 544 397 478 c 0
 397 381 337 244 313 244 c 0
 303 244 244 304 216 376 c 0
 212 387 202 378 209 357 c 0
 215 338 219 321 219 294 c 0
 219 209 142 58 66 -71 c 0
 59 -82 52 -90 39 -90 c 24
 31 -90 27 -77 31 -70 c 0
 83 28 124 127 124 272 c 0x98
EndSplineSet
Validated: 1
EndChar
StartChar: P
Encoding: 80 80 15
Width: 516
Flags: W
HStem: -90 21G<382 392> -90 21G<382 392> 620 40<7.42352 63.1178 112.897 369.53>
VStem: 271 77<57.1938 360.049>
LayerCount: 2
Fore
SplineSet
7 645 m 0xb0
 8 658 23 660 36 660 c 2
 404 660 l 2
 421 660 465 676 481 675 c 0
 492 675 497 663 497 650 c 0
 497 639 496 636 490 626 c 0
 406 480 348 365 348 187 c 0
 348 86 357 25 393 -69 c 0x70
 396 -77 396 -90 388 -90 c 0
 376 -90 371 -85 361 -73 c 0
 316 -17 271 78 271 185 c 0
 271 255 275 314 286 369 c 1
 235 363 216 356 187 334 c 0
 173 323 167 299 146 299 c 0
 137 299 136 312 136 318 c 0
 136 439 103 596 33 621 c 0
 20 626 6 631 7 645 c 0xb0
293 401 m 1
 308 464 333 525 369 597 c 0
 375 610 370 620 360 620 c 2
 126 620 l 2
 108 620 92 618 100 611 c 0
 156 561 200 495 214 409 c 0
 216 399 221 391 228 393 c 0
 242 396 269 401 293 401 c 1
EndSplineSet
Validated: 33
EndChar
StartChar: Q
Encoding: 81 81 16
Width: 510
Flags: W
HStem: -90 21G<161 341.5> -90 21G<161 341.5> 145 55<90.7356 215 297 418.364> 587 73<171.616 353.434>
VStem: 30 41<39.7468 123.306> 215 82<42.2252 145 200 298.178> 440 36<36.1618 115.996>
LayerCount: 2
Fore
SplineSet
240 660 m 2xbe
 294 660 l 2
 360 660 435 676 453 675 c 0
 469 674 485 667 485 658 c 0
 485 643 474 633 467 625 c 0
 375 520 298 383 295 200 c 1
 445 200 l 2
 471 200 476 191 476 178 c 2
 476 82 l 2
 476 61 474 36 460 36 c 0
 447 36 443 49 440 64 c 0
 426 124 412 145 370 145 c 2
 297 145 l 1
 308 11 370 -56 370 -74 c 0
 370 -85 349 -90 334 -90 c 2
 170 -90 l 2
 152 -90 146 -85 146 -74 c 0
 146 -62 206 12 215 145 c 1
 150 145 l 2
 109 145 86 134 71 81 c 0
 65 61 60 38 44 38 c 0
 33 38 30 54 30 95 c 2
 30 178 l 2
 30 201 40 200 51 200 c 2
 216 200 l 1
 210 376 137 543 60 619 c 0
 47 632 25 642 25 660 c 0
 25 667 37 674 57 675 c 0
 83 676 185 660 240 660 c 2xbe
258 587 m 0
 213 587 170 608 148 620 c 0
 139 625 137 614 140 610 c 0
 188 559 230 464 253 318 c 0
 256 301 264 302 267 318 c 0
 288 452 338 559 386 610 c 0
 394 618 387 625 378 620 c 0
 356 608 307 587 258 587 c 0
EndSplineSet
Validated: 33
EndChar
StartChar: X
Encoding: 88 88 23
Width: 620
Flags: W
HStem: -80 43<29.7921 168.829 250.608 377.805>
VStem: 38 84<172.787 441.212> 504 89<183.578 494.644>
LayerCount: 2
Fore
SplineSet
364 765 m 0
 360 770 356 775 356 779 c 8
 356 786 362 792 369 792 c 8
 379 792 387 790 394 783 c 0
 517 668 593 507 593 340 c 0
 593 116 527 14 493 -40 c 0
 475 -69 458 -80 429 -80 c 10
 66 -80 l 18
 49 -80 27 -76 27 -64 c 0
 27 -52 62 -43 71 -42 c 0
 89 -40 180 -29 168 -14 c 0
 98 72 38 164 38 294 c 0
 38 486 134 586 195 652 c 0
 205 662 213 670 227 670 c 8
 234 670 240 663 240 656 c 16
 240 648 236 641 229 633 c 0
 169 565 122 491 122 353 c 0
 122 215 153 70 250 -15 c 0
 253 -18 285 -37 298 -37 c 2
 353 -37 l 2
 360 -37 374 -33 378 -28 c 0
 448 69 504 196 504 321 c 8
 504 503 454 647 364 765 c 0
EndSplineSet
Validated: 33
EndChar
StartChar: b
Encoding: 98 98 33
Width: 415
Flags: W
HStem: -89 99<50 138.5> 443 30<46.1643 112.341 156.956 326.779> 464 20G<379 393.5>
VStem: 46 24<137.782 278.989> 124 32<364.952 431.845> 195 82<108.538 201.007> 352 51<328.768 473.181>
LayerCount: 2
Fore
SplineSet
72 443 m 0xde
 55 445 46 450 46 460 c 0
 46 470 58 473 82 473 c 10
 315 473 l 26xde
 343 473 371 484 387 484 c 0
 400 484 403 477 403 464 c 0xbe
 403 385 400 330 350 295 c 0
 338 287 326 282 321 282 c 0
 313 282 309 287 309 294 c 16
 309 302 352 319 352 353 c 0
 352 402 335 443 285 443 c 2
 184 443 l 18
 165 443 156 437 156 420 c 0
 156 384 160 377 165 371 c 0
 221 306 277 257 277 183 c 0
 277 94 184 10 86 -56 c 0
 71 -66 73 -89 55 -89 c 8
 45 -89 46 -76 46 -66 c 26
 46 253 l 18
 46 264 50 279 58 279 c 0
 66 279 69 264 70 252 c 0
 81 155 88 10 118 10 c 0
 159 10 195 92 195 146 c 0
 195 184 167 213 146 229 c 0
 133 238 124 265 124 290 c 26
 124 399 l 26
 124 426 106 440 72 443 c 0xde
EndSplineSet
Validated: 1
EndChar
StartChar: f
Encoding: 102 102 37
Width: 441
Flags: W
HStem: -89 21G<61 71> -89 21G<61 71> 226 63<226 357.802> 443 41<350.136 410.458> 443 30<129.19 256.86>
VStem: 40 29<277.24 366.157> 55 353<-68 277> 55 27<-88.7198 1.41977> 392 29<108.313 172.801>
LayerCount: 2
Fore
SplineSet
40 312 m 2x6c
 40 456 l 2
 40 464 45 484 61 484 c 0x34
 69 484 110 473 132 473 c 2
 277 473 l 2x2c
 329 473 365 484 383 484 c 0
 396 484 412 481 412 469 c 0
 412 457 393 447 383 443 c 0
 329 417 275 361 226 289 c 1
 391 289 l 2
 399 289 408 285 408 277 c 0x32
 411 217 413 177 421 136 c 0
 423 123 419 108 409 108 c 0
 400 108 394 117 392 127 c 0
 382 184 350 226 316 226 c 2
 187 226 l 1
 138 137 91 32 82 -68 c 0x7180
 81 -79 76 -89 66 -89 c 0xa180
 56 -89 55 -78 55 -68 c 0x62
 55 145 169 349 266 431 c 0
 272 436 257 443 247 443 c 2
 182 443 l 2
 111 443 82 384 69 313 c 0
 66 298 63 277 53 277 c 0
 43 277 40 298 40 312 c 2x6c
EndSplineSet
Validated: 1
EndChar
StartChar: h
Encoding: 104 104 39
Width: 408
Flags: W
HStem: -73 25<6.93689 62.2461> 238 41<260.128 320.086> 452 30<13.0843 84.1492 166.025 295.361> 518 20G<337 354.5>
VStem: 296 66<415.448 513.52> 312 26<44.2031 91.9027> 330 56<131.778 308.18>
LayerCount: 2
Fore
SplineSet
260 221 m 0xf2
 248 101 155 4 105 -63 c 0
 98 -71 91 -73 81 -73 c 2
 29 -73 l 2
 20 -73 6 -71 6 -63 c 0
 6 -57 19 -52 41 -48 c 0
 93 -39 188 129 188 238 c 0
 188 332 125 448 38 452 c 0
 26 453 13 458 13 468 c 0
 13 478 25 482 49 482 c 10
 240 482 l 18
 314 482 326 538 348 538 c 0
 361 538 362 524 362 513 c 0
 362 453 350 427 320 383 c 0
 312 371 299 358 294 358 c 0
 286 358 285 369 285 377 c 16
 285 385 296 406 296 426 c 0xf8
 296 445 295 452 266 452 c 10
 180 452 l 18
 168 452 166 446 166 435 c 0
 166 394 218 342 243 301 c 0
 254 283 266 279 274 279 c 10
 300 279 l 18
 314 279 322 289 320 301 c 0
 318 313 316 324 316 327 c 0
 316 337 324 341 330 347 c 0
 345 361 346 375 354 375 c 0
 360 375 386 305 386 259 c 16xf2
 386 180 358 107 338 63 c 0
 334 53 329 43 320 43 c 0
 313 43 312 50 312 57 c 0xf4
 312 69 330 129 330 218 c 0
 330 233 319 238 300 238 c 10
 281 238 l 18
 267 238 261 231 260 221 c 0xf2
EndSplineSet
Validated: 1
EndChar
StartChar: j
Encoding: 106 106 41
Width: 429
VWidth: 0
Flags: W
HStem: -80 22<171.665 239.99> 419 56<168.984 300.075> 445 30<46.0592 112.149> 470 20G<377.5 389>
VStem: 60 36<24.3674 307.992> 367 27<205.129 313.38>
LayerCount: 2
Fore
SplineSet
60 212 m 2xcc
 60 280 76 358 110 418 c 0
 120 435 102 442 72 445 c 0
 55 447 46 451 46 461 c 0
 46 471 58 475 82 475 c 2xac
 252 475 l 2xcc
 333 475 343 441 356 441 c 0
 364 441 371 490 384 490 c 0x9c
 394 490 394 473 394 462 c 2
 394 281 l 2
 394 246 385 199 374 199 c 8
 367 199 367 207 367 215 c 0
 367 311 332 419 236 419 c 8
 129 419 96 290 96 183 c 2
 96 131 l 2
 96 33 132 -58 218 -58 c 0
 226 -58 240 -60 240 -69 c 0
 240 -77 232 -80 222 -80 c 10
 73 -80 l 18
 65 -80 60 -73 60 -55 c 2
 60 212 l 2xcc
EndSplineSet
Validated: 33
EndChar
StartChar: p
Encoding: 112 112 47
Width: 395
Flags: W
HStem: -89 21G<294.5 302> -89 21G<294.5 302> 443 30<13.3606 55.4051 98.3008 283.741>
VStem: 211 58<6.00344 252.686>
LayerCount: 2
Fore
SplineSet
13 462 m 0xb0
 14 472 25 473 35 473 c 2
 311 473 l 2
 324 473 357 485 369 484 c 0
 377 484 381 476 381 466 c 0
 381 458 379 455 375 448 c 0
 312 338 269 252 269 118 c 0
 269 42 276 -3 303 -74 c 0
 305 -80 305 -89 299 -89 c 0
 290 -89 287 -86 279 -77 c 0
 245 -35 211 37 211 117 c 0
 211 170 215 214 223 255 c 1
 185 251 170 246 148 229 c 0
 137 221 132 202 117 202 c 0
 110 202 110 212 110 217 c 0
 110 308 85 425 33 444 c 0
 23 447 12 452 13 462 c 0xb0
228 279 m 1
 240 326 258 371 285 426 c 0
 290 435 286 443 278 443 c 2
 102 443 l 2
 88 443 77 441 83 436 c 0
 125 398 158 349 168 285 c 0
 169 277 174 272 179 273 c 0
 190 275 210 279 228 279 c 1
EndSplineSet
Validated: 33
EndChar
StartChar: q
Encoding: 113 113 48
Width: 386
Flags: W
HStem: -89 21G<122 257.5> -89 21G<122 257.5> 7 121<24.6725 52.0845 331.53 358.591> 87 41<66.5926 163 224 317.976> 418 55<120.442 279.024>
VStem: 24 31<8.02055 71.7656> 163 61<-5.14453 87 128 207.06> 332 27<5.12298 66.2341>
LayerCount: 2
Fore
SplineSet
182 473 m 2x1f
 222 473 l 2
 272 473 328 485 342 484 c 0
 354 483 366 479 366 472 c 0
 366 461 357 453 352 447 c 0
 283 368 225 265 223 128 c 1x1f
 336 128 l 2x2f
 356 128 359 122 359 112 c 2
 359 40 l 2
 359 24 357 5 347 5 c 0
 337 5 334 15 332 26 c 0
 322 71 311 87 279 87 c 2
 224 87 l 1
 232 -13 279 -63 279 -77 c 0
 279 -85 263 -89 252 -89 c 2
 129 -89 l 2
 115 -89 111 -85 111 -77 c 0
 111 -68 156 -13 163 87 c 1
 114 87 l 2x9f
 83 87 66 79 55 39 c 0
 51 24 47 7 35 7 c 0
 27 7 24 18 24 49 c 2
 24 112 l 2
 24 129 32 128 40 128 c 2x2f
 164 128 l 1
 160 260 105 385 47 442 c 0
 37 452 20 459 20 473 c 0
 20 478 29 483 44 484 c 0
 64 485 141 473 182 473 c 2x1f
195 418 m 0
 161 418 129 434 113 443 c 0
 106 447 105 439 107 436 c 0
 143 398 175 327 192 217 c 0
 194 204 200 205 202 217 c 0
 218 317 255 398 291 436 c 0
 297 442 292 447 285 443 c 0
 269 434 232 418 195 418 c 0
EndSplineSet
Validated: 33
EndChar
StartChar: r
Encoding: 114 114 49
Width: 384
Flags: W
HStem: -91 21G<182.5 189.5> 420 57<99.6789 244.626>
VStem: 67 84<109.169 294.815>
LayerCount: 2
Fore
SplineSet
9 373 m 0
 9 402 92 477 199 477 c 0
 278 477 374 417 374 371 c 0
 374 361 368 352 349 349 c 8
 279 336 240 326 175 296 c 24
 159 288 151 274 151 256 c 0
 151 30 194 -60 194 -74 c 8
 194 -81 193 -91 186 -91 c 8
 179 -91 175 -85 172 -79 c 16
 112 25 67 153 67 211 c 0
 67 248 69 293 107 312 c 16
 167 341 191 350 247 365 c 16
 255 367 256 371 256 378 c 0
 256 398 225 420 157 420 c 0
 101 420 73 402 31 368 c 0
 27 364 22 361 16 361 c 8
 10 361 9 365 9 373 c 0
EndSplineSet
Validated: 1
EndChar
StartChar: v
Encoding: 118 118 53
Width: 371
Flags: W
HStem: -91 21G<163 169.5> 441 30<42.147 92.1562 276.998 314.594>
VStem: 19 63<60.0221 299.343> 304 48<50.459 278.992>
LayerCount: 2
Fore
SplineSet
174 -74 m 8
 177 -78 180 -82 180 -85 c 8
 180 -91 172 -91 167 -91 c 8
 159 -91 153 -90 148 -85 c 0
 56 1 19 69 19 194 c 0
 19 250 55 353 89 413 c 0
 99 430 97 439 67 441 c 0
 50 443 42 448 42 458 c 0
 42 468 54 471 79 471 c 10
 286 471 l 18
 299 471 315 468 315 459 c 0
 315 450 306 444 299 443 c 0
 286 442 269 434 277 422 c 0
 325 346 352 289 352 191 c 0
 352 47 309 -2 250 -64 c 0
 243 -72 236 -78 226 -78 c 8
 221 -78 216 -72 216 -67 c 16
 216 -61 218 -56 224 -50 c 0
 277 2 304 43 304 147 c 0
 304 218 279 346 198 423 c 0
 187 433 168 435 161 422 c 24
 118 337 82 286 82 192 c 8
 82 82 118 -8 174 -74 c 8
EndSplineSet
Validated: 33
EndChar
StartChar: x
Encoding: 120 120 55
Width: 464
Flags: W
HStem: -66 32<21.8212 123.567 188.399 282.854> 497 71G<165 172.5 273.5 280>
VStem: 28 63<105.134 340.2> 378 66<114.745 381.575>
LayerCount: 2
Fore
SplineSet
272 568 m 0
 269 572 266 575 266 578 c 8
 266 583 271 588 276 588 c 8
 284 588 290 586 295 581 c 0
 387 495 444 374 444 249 c 0
 444 81 395 4 369 -36 c 0
 355 -58 343 -66 321 -66 c 10
 49 -66 l 18
 36 -66 20 -63 20 -54 c 0
 20 -45 46 -38 53 -37 c 0
 67 -35 135 -28 126 -17 c 0
 74 47 28 117 28 215 c 0
 28 359 100 433 146 483 c 0
 153 491 160 497 170 497 c 8
 175 497 180 491 180 486 c 16
 180 480 177 475 171 469 c 0
 126 418 91 363 91 259 c 0
 91 155 114 47 187 -17 c 0
 189 -19 213 -34 223 -34 c 2
 264 -34 l 2
 269 -34 280 -31 283 -27 c 0
 335 46 378 141 378 235 c 8
 378 371 340 480 272 568 c 0
EndSplineSet
Validated: 33
EndChar
StartChar: y
Encoding: 121 121 56
Width: 369
Flags: W
HStem: -89 225<92 295> -89 20<231.911 314.991> 464 20G<54 64.5 344 352.5>
VStem: 15 61<6.70376 74.4408> 163 31<-31.3499 130.534>
LayerCount: 2
Fore
SplineSet
35 471 m 0xb8
 35 483 49 484 59 484 c 0
 70 484 92 473 114 473 c 2
 169 473 l 2
 179 473 185 468 184 460 c 1
 174 418 l 2
 170 404 174 391 181 391 c 0
 230 391 283 432 325 460 c 0
 331 464 339 473 349 473 c 0
 356 473 359 470 359 463 c 0
 359 455 355 451 346 445 c 0
 240 373 198 152 194 -50 c 1
 229 -61 267 -67 302 -69 c 0x78
 308 -69 315 -72 315 -79 c 0
 315 -89 303 -89 295 -89 c 0
 161 -89 15 -72 15 11 c 0
 15 62 69 118 78 127 c 0
 83 132 85 136 92 136 c 0
 99 136 99 133 99 126 c 0
 99 117 76 83 76 59 c 0
 76 19 108 -11 152 -33 c 1
 154 2 163 50 163 100 c 0
 163 241 159 369 56 448 c 0
 46 456 35 463 35 471 c 0xb8
EndSplineSet
Validated: 1
EndChar
